<?xml version="1.0" standalone="no"?>
<!DOCTYPE svg PUBLIC "-//W3C//DTD SVG 20010904//EN"
 "http://www.w3.org/TR/2001/REC-SVG-20010904/DTD/svg10.dtd">
<svg version="1.0" xmlns="http://www.w3.org/2000/svg"
 width="512.000000pt" height="512.000000pt" viewBox="0 0 512.000000 512.000000"
 preserveAspectRatio="xMidYMid meet">

<g transform="translate(0.000000,512.000000) scale(0.100000,-0.100000)"
fill="#000000" stroke="none">
<path d="M415 4786 c-41 -18 -83 -69 -90 -109 -3 -18 -4 -982 -3 -2144 l3
-2112 21 -27 c11 -15 33 -37 48 -48 l27 -21 2139 0 2139 0 27 21 c53 39 69 71
69 134 0 63 -16 95 -69 134 l-27 21 -2030 3 -2029 2 -2 2029 -3 2030 -21 27
c-11 15 -32 37 -46 47 -33 25 -113 32 -153 13z"/>
<path d="M3840 4787 c-49 -16 -133 -102 -148 -153 -28 -94 -8 -169 63 -239
102 -103 243 -101 338 5 90 100 90 220 0 320 -65 72 -158 97 -253 67z"/>
<path d="M4580 4789 c-14 -5 -228 -213 -476 -461 l-451 -450 -42 45 c-95 102
-235 103 -336 2 -100 -100 -101 -227 -2 -330 l48 -49 -1175 -1176 c-1278
-1278 -1199 -1192 -1181 -1287 9 -49 69 -109 118 -118 79 -15 103 -2 235 128
100 99 122 117 122 98 0 -84 85 -195 166 -219 96 -28 182 -4 247 68 90 100 90
220 0 320 -44 49 -107 80 -162 80 -21 0 258 284 1536 1563 1395 1396 1562
1566 1568 1600 24 129 -95 233 -215 186z"/>
<path d="M3200 4627 c-49 -16 -133 -102 -148 -153 -28 -94 -8 -169 63 -239
102 -103 243 -101 338 5 90 100 90 220 0 320 -65 72 -158 97 -253 67z"/>
<path d="M4320 3987 c-49 -16 -133 -102 -148 -153 -28 -94 -8 -169 63 -239
102 -103 243 -101 338 5 90 100 90 220 0 320 -65 72 -158 97 -253 67z"/>
<path d="M1760 3507 c-49 -16 -133 -102 -148 -153 -28 -94 -8 -169 63 -239
102 -103 243 -101 338 5 90 100 90 220 0 320 -65 72 -158 97 -253 67z"/>
<path d="M4000 3507 c-49 -16 -133 -102 -148 -153 -28 -94 -8 -169 63 -239
102 -103 243 -101 338 5 90 100 90 220 0 320 -65 72 -158 97 -253 67z"/>
<path d="M3520 2867 c-49 -16 -133 -102 -148 -153 -28 -94 -8 -169 63 -239
102 -103 243 -101 338 5 90 100 90 220 0 320 -65 72 -158 97 -253 67z"/>
<path d="M1600 2547 c-49 -16 -133 -102 -148 -153 -28 -94 -8 -169 63 -239
102 -103 243 -101 338 5 90 100 90 220 0 320 -65 72 -158 97 -253 67z"/>
<path d="M1120 2067 c-49 -16 -133 -102 -148 -153 -28 -94 -8 -169 63 -239
102 -103 243 -101 338 5 90 100 90 220 0 320 -65 72 -158 97 -253 67z"/>
<path d="M2400 2067 c-49 -16 -133 -102 -148 -153 -28 -94 -8 -169 63 -239
102 -103 243 -101 338 5 90 100 90 220 0 320 -65 72 -158 97 -253 67z"/>
<path d="M2240 1427 c-49 -16 -133 -102 -148 -153 -28 -94 -8 -169 63 -239
102 -103 243 -101 338 5 90 100 90 220 0 320 -65 72 -158 97 -253 67z"/>
</g>
</svg>
